<?xml version="1.0" encoding="UTF-8"?>
<!-- Generator: Adobe Illustrator 22.0.1, SVG Export Plug-In . SVG Version: 6.00 Build 0)  -->
<svg version="1.1" id="Layer_1" xmlns="http://www.w3.org/2000/svg" xmlns:xlink="http://www.w3.org/1999/xlink" x="0px" y="0px" viewBox="0 0 303.8 50.8" style="enable-background:new 0 0 303.8 50.8;" xml:space="preserve">
<style type="text/css">
	.st0{clip-path:url(#SVGID_2_);fill:#4F87C7;}
	.st1{clip-path:url(#SVGID_4_);fill:#4F87C7;}
	.st2{clip-path:url(#SVGID_6_);fill:#4F87C7;}
	.st3{clip-path:url(#SVGID_8_);fill:#4F87C7;}
	.st4{clip-path:url(#SVGID_10_);fill:#4F87C7;}
	.st5{fill:#AEBDE1;}
	.st6{clip-path:url(#SVGID_12_);fill:#4F87C7;}
	.st7{clip-path:url(#SVGID_14_);fill:#4F87C7;}
	.st8{clip-path:url(#SVGID_16_);fill:#70BF45;}
	.st9{clip-path:url(#SVGID_18_);fill:#2E8585;}
	.st10{clip-path:url(#SVGID_20_);fill:#4F87C7;}
	.st11{clip-path:url(#SVGID_22_);fill:#70BF45;}
	.st12{fill:#4F87C7;}
</style>
<g>
	<g>
		<g>
			<defs>
				<rect id="SVGID_1_" x="0.4" y="10.9" width="83.7" height="32.4"/>
			</defs>
			<clipPath id="SVGID_2_">
				<use xlink:href="#SVGID_1_" style="overflow:visible;"/>
			</clipPath>
			<path class="st0" d="M0.4,36.1v-1.4l1.8-0.1c0.2,0,0.4-0.1,0.5-0.2c0.1-0.1,0.2-0.3,0.2-0.5V21.1H0.4v-1.2l4.4-1.7h1.5v15.6     c0,0.2,0.1,0.4,0.2,0.5c0.1,0.1,0.3,0.2,0.5,0.2l1.9,0.1V36H0.4V36.1z M7,13.1c0,0.3-0.1,0.6-0.2,0.8c-0.1,0.2-0.2,0.5-0.4,0.7     C6.2,14.9,6,15,5.6,15.1c-0.2,0.1-0.5,0.2-0.8,0.2c-0.3,0-0.6-0.1-0.8-0.2c-0.3-0.1-0.5-0.3-0.7-0.4c-0.2-0.2-0.3-0.4-0.5-0.7     c-0.1-0.3-0.2-0.5-0.2-0.8s0.1-0.6,0.2-0.8C2.8,12,3,11.8,3.3,11.5c0.2-0.2,0.4-0.3,0.7-0.4c0.3-0.1,0.5-0.2,0.8-0.2     c0.3,0,0.6,0.1,0.8,0.2c0.3,0.1,0.5,0.2,0.7,0.4c0.2,0.2,0.3,0.4,0.4,0.7C7,12.5,7,12.8,7,13.1"/>
		</g>
		<g>
			<defs>
				<rect id="SVGID_3_" x="0.4" y="10.9" width="83.7" height="32.4"/>
			</defs>
			<clipPath id="SVGID_4_">
				<use xlink:href="#SVGID_3_" style="overflow:visible;"/>
			</clipPath>
			<path class="st1" d="M22.7,36.1v-1.5l1.5-0.1c0.2,0,0.4-0.1,0.5-0.2s0.2-0.3,0.2-0.5v-9c0-1.1-0.3-2-0.8-2.6     c-0.5-0.6-1.5-0.9-2.7-0.9c-0.7,0-1.6,0-2.2,0.2c-0.6,0.2-1.1,0.2-1.8,0.5v11.9c0,0.2,0.1,0.4,0.2,0.5c0.1,0.1,0.3,0.2,0.5,0.2     l1.5,0.1v1.5h-8.1v-1.5l1.8-0.1c0.2,0,0.4-0.1,0.5-0.2c0.1-0.1,0.2-0.3,0.2-0.5V21.1h-2.5V20l4.4-1.8h1.5v2.3     c0.5-0.3,1-0.5,1.6-0.8c0.5-0.3,1-0.5,1.6-0.7c0.5-0.2,1-0.4,1.5-0.5c0.5-0.1,0.9-0.2,1.4-0.2c1.6,0,2.7,0.5,3.5,1.5     c0.8,0.9,1.2,2.4,1.2,4.2v10c0,0.2,0.1,0.4,0.2,0.5c0.1,0.1,0.3,0.2,0.5,0.2l1.6,0.1v1.5H22.7z"/>
		</g>
		<g>
			<defs>
				<rect id="SVGID_5_" x="0.4" y="10.9" width="83.7" height="32.4"/>
			</defs>
			<clipPath id="SVGID_6_">
				<use xlink:href="#SVGID_5_" style="overflow:visible;"/>
			</clipPath>
			<path class="st2" d="M42.4,26.2c-1.6,0.4-2.9,0.8-3.8,1.1c-0.9,0.4-1.7,0.8-2.2,1.1c-0.5,0.4-0.8,0.8-0.9,1.2     c-0.1,0.4-0.2,0.8-0.2,1.2s0.1,0.7,0.2,1s0.3,0.6,0.5,0.9c0.2,0.3,0.5,0.5,0.8,0.6c0.3,0.2,0.7,0.2,1.1,0.2     c0.5,0,0.9-0.1,1.5-0.2c0.5-0.2,1-0.3,1.5-0.5c0.5-0.2,1-0.5,1.5-0.8v-6H42.4z M42.3,34.5v-1c-0.6,0.5-1.2,1-2,1.4     c-0.3,0.2-0.6,0.3-0.9,0.4c-0.3,0.1-0.6,0.3-1,0.4c-0.3,0.1-0.7,0.2-1,0.3c-0.3,0.1-0.7,0.1-1,0.1c-0.6,0-1.2-0.1-1.9-0.3     c-0.5-0.2-1-0.5-1.5-0.9c-0.4-0.4-0.7-0.9-1-1.5c-0.2-0.6-0.3-1.2-0.3-2c0-0.4,0-0.8,0.1-1.2s0.3-0.7,0.5-1.1     c0.3-0.4,0.6-0.7,1.1-1c0.5-0.3,1.1-0.7,1.9-1c0.8-0.3,1.8-0.6,2.9-0.9s2.5-0.6,4.1-1v-1.6c0-1.1-0.3-2.1-0.8-2.6     C40.8,20.2,40,20,38.8,20c-0.6,0-1.1,0.1-1.6,0.2c-0.4,0.1-0.7,0.2-0.9,0.3v3h-2.6c-0.2,0-0.3,0-0.5,0c-0.1,0-0.3-0.1-0.4-0.1     c-0.1-0.1-0.2-0.2-0.3-0.3c-0.1-0.1-0.1-0.3-0.1-0.5c0-0.7,0.2-1.4,0.6-1.9c0.4-0.5,1-0.9,1.8-1.4c0.7-0.3,1.6-0.6,2.4-0.7     c0.9-0.2,1.8-0.2,2.7-0.2c1.1,0,2,0.1,2.7,0.4c0.7,0.3,1.4,0.6,1.8,1.1c0.4,0.5,0.7,1,0.9,1.7c0.2,0.6,0.3,1.4,0.3,2.1L45.7,34     c0,0.2,0.1,0.4,0.2,0.5c0.1,0.1,0.3,0.2,0.5,0.2l1.8,0.1v1.4h-5.9C42.3,36.2,42.3,34.5,42.3,34.5z"/>
		</g>
		<g>
			<defs>
				<rect id="SVGID_7_" x="0.4" y="10.9" width="83.7" height="32.4"/>
			</defs>
			<clipPath id="SVGID_8_">
				<use xlink:href="#SVGID_7_" style="overflow:visible;"/>
			</clipPath>
			<path class="st3" d="M80.5,27.3c0-0.9-0.1-1.4-0.3-2.1c-0.2-0.8-0.5-1.6-0.9-2.1c-0.4-0.6-0.9-1.1-1.6-1.5     c-0.6-0.3-1.2-0.4-2.2-0.5c-0.8-0.1-1.7,0-2.5,0.2c-0.4,0.1-0.8,0.2-1.2,0.4v12.3c0.3,0.1,0.6,0.2,0.9,0.3     c0.3,0.1,0.6,0.1,0.9,0.2c0.3,0.1,0.7,0.1,1,0.1c0.9,0,1.9-0.2,2.6-0.6s1.4-1,1.8-1.8c0.5-0.6,0.8-1.4,1-2.3     C80.4,29.1,80.5,28.3,80.5,27.3 M84.2,26.8c0,1.4-0.2,2.6-0.6,3.7c-0.4,1.1-1,2.3-1.8,3C81,34.4,80,34.9,79,35.5     c-1.1,0.4-2.4,0.6-3.7,0.6c-0.3,0-0.6,0-1,0c-0.4,0-0.7-0.1-1-0.1c-0.4,0-0.7-0.1-1.1-0.2V41c0,0.2,0.1,0.4,0.2,0.5     c0.1,0.1,0.3,0.2,0.5,0.2l2.1,0.2v1.4h-8.7v-1.4l1.7-0.2c0.2,0,0.4-0.1,0.5-0.2c0.1-0.1,0.2-0.3,0.2-0.5V21.1H66v-1.2l4.5-1.8     h1.4v2.3c0.5-0.4,1-0.7,1.7-1c0.5-0.3,1-0.5,1.8-0.7c0.6-0.2,1.4-0.3,2-0.3c0.9,0,1.8,0.2,2.6,0.6c0.8,0.4,1.6,1,2.2,1.8     s1.1,1.7,1.5,2.7C84,24.3,84.2,25.6,84.2,26.8"/>
		</g>
		<g>
			<defs>
				<rect id="SVGID_9_" x="0.4" y="10.9" width="83.7" height="32.4"/>
			</defs>
			<clipPath id="SVGID_10_">
				<use xlink:href="#SVGID_9_" style="overflow:visible;"/>
			</clipPath>
			<path class="st4" d="M63.9,31.1c0,0.9-0.2,1.8-0.5,2.5c-0.3,0.7-0.8,1.4-1.5,1.9c-0.6,0.5-1.5,0.8-2.4,1.1s-2,0.4-3.1,0.4     c-0.6,0-1.2,0-1.8-0.1c-0.5-0.1-1.1-0.1-1.6-0.2c-0.5-0.1-0.9-0.2-1.2-0.3c-0.4-0.1-0.6-0.2-0.8-0.3v-5h2l0.5,3.1     c0.4,0.2,0.9,0.5,1.5,0.7c0.6,0.2,1.2,0.3,2.1,0.3c0.5,0,1-0.1,1.6-0.2c0.4-0.2,0.8-0.4,1.1-0.6c0.3-0.3,0.5-0.5,0.7-0.9     c0.2-0.3,0.2-0.7,0.2-1c0-0.5-0.1-0.9-0.3-1.4c-0.2-0.4-0.5-0.7-0.9-1c-0.4-0.3-0.9-0.6-1.6-0.8c-0.6-0.3-1.2-0.6-2.1-0.9     c-0.7-0.3-1.4-0.6-1.9-0.9s-1-0.6-1.5-1c-0.4-0.4-0.6-0.8-0.8-1.2c-0.2-0.4-0.3-0.9-0.3-1.5c0-0.8,0.1-1.6,0.4-2.2     c0.3-0.6,0.8-1.2,1.4-1.7c0.6-0.5,1.4-0.8,2.2-1c0.9-0.2,1.9-0.4,3-0.4c0.6,0,1.1,0,1.7,0.1s1,0.1,1.5,0.2     c0.4,0.1,0.8,0.2,1.1,0.3s0.6,0.2,0.8,0.3v4.4h-2.1L61,21c-0.3-0.2-0.7-0.4-1.2-0.6c-0.5-0.2-1.1-0.3-1.8-0.3     c-1.1,0-1.9,0.2-2.4,0.7c-0.5,0.4-0.7,1-0.7,1.8c0,0.4,0.1,0.8,0.2,1.1c0.1,0.3,0.4,0.6,0.7,0.9c0.3,0.3,0.8,0.5,1.4,0.8     s1.2,0.6,2.1,0.9c0.7,0.3,1.4,0.6,1.9,0.9c0.6,0.3,1,0.6,1.6,1c0.4,0.4,0.7,0.8,0.9,1.2C63.8,29.9,63.9,30.5,63.9,31.1"/>
		</g>
	</g>
	<g>
		<path class="st5" d="M116.5,43.1c0.2,0.5,0.5,1,0.6,1.7c0.5,1.5,0.8,2.8,0.9,3.8c-0.3,0.1-0.5,0.1-0.8,0.2c-1.5,0.3-2.7,0.4-4,0.5    c0-0.1-0.1-0.2-0.1-0.3c-0.3-0.6-0.7-1.5-1.4-2.3C113.2,45.7,114.7,44.5,116.5,43.1 M111.4,36.1c2.2,2,3.6,4.2,4.7,6.1    c-1.9,1.5-3.4,2.7-4.8,3.5c-0.9-1.5-2.3-3-3.6-4.4c0.4-0.6,0.8-1.2,1.2-1.9C109.6,38.5,110.5,37.3,111.4,36.1 M125.1,35.5    c1,1.8,1.9,3.6,2.4,5.3c0.3,1,0.6,2.1,0.7,3.1c-3.1,2.2-6.4,3.6-9.5,4.5c-0.1-1.1-0.4-2.5-0.9-4c-0.2-0.6-0.5-1.2-0.8-1.9    c2.1-1.7,4.4-3.7,7.2-6.3C124.6,36,124.8,35.7,125.1,35.5 M104,30.8c1.9,1,4.1,2.6,6.4,4.6c0.1,0.1,0.2,0.2,0.3,0.3    c-0.9,1.2-1.8,2.5-2.5,3.5c-0.4,0.6-0.8,1.2-1.1,1.8c-0.2-0.2-0.4-0.3-0.5-0.5c-1.7-1.4-3-2.4-4.3-3.1c0.1-0.6,0.2-1.2,0.3-1.9    C103,34,103.4,32.3,104,30.8 M97.6,28.1c0.4,0.1,0.8,0.2,1.4,0.4c1.1,0.4,2.6,0.9,4.3,1.9c-0.6,1.8-1,3.4-1.5,5    c-0.1,0.5-0.2,1-0.3,1.6c-1.6-0.8-2.7-1.2-3.5-1.5C97.6,33,97.5,30.5,97.6,28.1 M133.2,27.6c1.6,2.6,2.8,5.2,3.7,7.6    c0.2,0.4,0.3,0.9,0.4,1.4c-2.8,2.8-5.8,5.1-8.3,6.9c-0.2-0.9-0.4-1.9-0.7-2.8c-0.6-1.8-1.5-3.7-2.6-5.6    C128,32.8,130.7,30.2,133.2,27.6 M118.4,27c0.1,0.1,0.3,0.3,0.4,0.4c2.4,2.3,4.4,4.8,5.9,7.3c-0.3,0.3-0.6,0.6-0.9,0.8    c-2.7,2.5-5,4.5-7,6.1c-1-2.1-2.7-4.3-4.9-6.3C113.9,32.8,116.1,29.8,118.4,27 M109,20.3c2.8,1.5,5.8,3.6,8.7,6.2    c-2.3,2.8-4.5,5.7-6.4,8.4c-0.1-0.1-0.2-0.1-0.3-0.2c-2.5-2.1-4.8-3.6-6.8-4.7C105.5,26.8,107,23.5,109,20.3 M139.7,20    c1.8,2.5,3.1,4.9,4.1,7.2c-1.4,3.3-3.4,6.2-5.7,8.6c-0.1-0.3-0.2-0.6-0.3-0.9c-0.9-2.6-2.3-5.3-4-7.9c1.6-1.7,3-3.3,4.4-4.9    C138.6,21.3,139.2,20.6,139.7,20 M125.8,18.5c0.2,0.2,0.4,0.3,0.5,0.5c2.5,2.4,4.7,5,6.4,7.8c-2.5,2.7-5.1,5.2-7.5,7.4    c-1.6-2.5-3.5-5-5.9-7.3c-0.2-0.2-0.3-0.3-0.5-0.5c0.6-0.7,1.2-1.5,1.8-2.2C122.4,22,124.2,20.2,125.8,18.5 M100.3,17.7    c1.6,0,3.3,0.3,5.3,1c0.8,0.3,1.8,0.7,2.7,1.1c-2,3.2-3.5,6.4-4.8,9.7c-1.7-0.8-3.1-1.5-4.3-1.9c-0.6-0.2-1.1-0.3-1.6-0.4    C98,23.8,98.9,20.6,100.3,17.7 M132.9,12.1c0.2,0.2,0.4,0.4,0.6,0.7c2.1,2.1,4,4.4,5.5,6.6c-0.5,0.7-1,1.5-1.7,2.2    c-1.2,1.6-2.7,3.1-4.2,4.7c-1.8-2.7-4-5.4-6.4-7.8c-0.2-0.2-0.3-0.3-0.5-0.5C128.8,15.4,131.1,13.5,132.9,12.1 M116.3,11.2    c2.8,1.8,5.8,4,8.8,6.7c-1.7,1.7-3.3,3.5-5.1,5.7c-0.6,0.7-1.1,1.5-1.8,2.2c-2.9-2.6-5.9-4.8-8.8-6.2c0.3-0.5,0.7-1,1-1.7    C112.2,15.5,114.2,13.2,116.3,11.2 M107.7,7.5c1.1,0.2,2.4,0.6,3.7,1.1c1.4,0.5,2.7,1.2,4.2,2.1c-2.1,2-4,4.2-5.7,6.7    c-0.4,0.5-0.7,1.1-1.1,1.7c-0.9-0.5-2-0.9-2.8-1.2c-1.9-0.7-3.6-1-5.2-1.1c0.8-1.6,1.8-3,2.8-4.5C104.9,10.6,106.3,8.9,107.7,7.5     M124.8,5.2c2.5,1.7,5.1,3.8,7.6,6.2c-2,1.5-4.2,3.4-6.7,5.9c-2.9-2.7-5.9-4.9-8.8-6.7c2.5-2.2,5.1-4.1,7.5-5.3    C124.6,5.3,124.7,5.3,124.8,5.2 M117,1.2c0.9,0.3,1.9,0.6,2.9,1.1c1.4,0.6,2.7,1.4,4.1,2.3c-2.6,1.4-5.2,3.2-7.8,5.5    c-1.6-0.9-3-1.7-4.5-2.3c-1.1-0.5-2.3-0.8-3.3-1.1C111.2,4.2,114,2.4,117,1.2 M120.5,0c-0.8,0-1.7,0-2.5,0.1    c-0.3,0.1-0.7,0.2-1,0.3c-0.2,0-0.3-0.1-0.5-0.1c-0.8,0.1-1.6,0.3-2.3,0.5c0,0,0,0,0.1,0c0.4,0,0.9,0.1,1.4,0.2    c-2.8,1.1-5.5,3-8.2,5.7c-0.7-0.1-1.4-0.2-2-0.2c-0.1,0-0.2,0-0.3,0c-0.5,0-1,0.1-1.6,0.2c-0.5,0.4-1,0.9-1.5,1.5    c0.9-0.5,2-0.8,3.3-0.8c0.4,0,0.8,0,1.4,0.1c-1.2,1.4-2.6,2.8-3.8,4.6c-1.1,1.6-2.2,3.2-3,5l0,0c-1.4,0.1-2.5,0.4-3.4,1.1    c-0.2,0.5-0.3,1-0.4,1.6c0.1-0.2,0.3-0.4,0.5-0.6c0.7-0.7,1.8-1.1,2.9-1.2c-1.4,2.9-2.2,6-2.5,9.4c-0.7-0.1-1.2-0.2-1.6-0.2    c0,0.3,0,0.5,0.1,0.8c0.3,0,0.8,0.1,1.5,0.2c-0.1,2.2-0.1,4.4,0.2,6.7c0.4,0.9,0.8,2,1.4,2.9c-0.1-0.3-0.2-0.7-0.2-1    c0.8,0.2,1.9,0.6,3.3,1.5c-0.2,1.4-0.2,2.7-0.2,3.8c0.3,0.3,0.6,0.7,0.9,1v-0.1c-0.2-1.2-0.2-2.7,0-4.3c1,0.7,2.3,1.6,3.8,2.8    c0.2,0.2,0.4,0.3,0.6,0.5c-0.7,1.2-1.4,2.3-1.8,3.1c0,0.1-0.1,0.2-0.1,0.2c0.2,0.2,0.4,0.3,0.6,0.5c0-0.1,0.1-0.2,0.2-0.4    c0.3-0.7,0.9-1.8,1.7-2.9c1.2,1.2,2.5,2.7,3.4,4.1c-0.8,0.5-1.6,0.8-2.3,1.1c0.3,0.2,0.6,0.3,0.9,0.5c0.6-0.2,1.1-0.5,1.8-0.9    c0.6,0.9,1,1.7,1.2,2.3c0.8,0.3,1.8,0.5,2.7,0.7c0.7-0.1,1.6-0.2,2.4-0.4c0.2,0,0.4-0.1,0.7-0.1c0,0.4,0,0.7,0,1    c0.3,0,0.5,0,0.8,0.1c0-0.3,0.1-0.8,0-1.2c3-0.8,6.3-2.2,9.5-4.4c0.2,1.9-0.1,3.5-0.7,4.7c0.4-0.1,0.7-0.2,1.1-0.3    c0.5-1.4,0.6-3,0.4-4.8c2.5-1.8,5.6-4.1,8.4-6.9c0.5,1.8,0.8,3.4,0.8,4.9c0,0.2,0,0.4,0,0.6c0.3-0.3,0.5-0.5,0.8-0.8    c-0.1-1.6-0.4-3.3-1-5.3c2.3-2.4,4.4-5.2,5.8-8.4c0.4,1,0.6,2,0.8,2.9c0.1-0.6,0.3-1.2,0.4-1.9c-0.2-0.7-0.5-1.5-0.7-2.2    c0.4-1,0.7-2.2,1-3.4c-0.1-1-0.2-2-0.3-2.9c-0.2,1.9-0.6,3.6-1.1,5.3c-1-2.2-2.3-4.5-4-6.8c1.1-1.6,2-2.9,2.6-4.3    c0.1-0.3,0.3-0.5,0.4-0.8c-0.2-0.3-0.3-0.7-0.5-1c-0.1,0.4-0.3,0.9-0.6,1.5c-0.5,1.1-1.4,2.5-2.4,3.8c-1.6-2.2-3.4-4.4-5.5-6.4    c-0.2-0.2-0.4-0.4-0.6-0.6c2.4-1.8,4.3-2.8,5.5-3.3c-0.2-0.2-0.4-0.4-0.6-0.6c-1.2,0.6-3.1,1.7-5.4,3.4c-2.5-2.4-5-4.5-7.4-6.1    c2-0.9,3.7-1.5,5.4-1.7c0.5-0.1,1-0.1,1.6-0.1c-0.5-0.3-1-0.5-1.6-0.7c-0.1,0-0.1,0-0.2,0c-1.9,0.2-4,0.9-6,2    c-1.6-1-3.1-2-4.6-2.6c-0.6-0.3-1.4-0.5-2-0.8c1.5-0.4,2.9-0.6,4.5-0.7C122,0,121.3,0,120.5,0"/>
	</g>
	<g>
		<g>
			<defs>
				<rect id="SVGID_11_" x="95.4" y="2.7" width="49.9" height="44.1"/>
			</defs>
			<clipPath id="SVGID_12_">
				<use xlink:href="#SVGID_11_" style="overflow:visible;"/>
			</clipPath>
			<path class="st6" d="M95.6,29.1c0.1,0.6,0.2,1.1,0.3,1.8c0.8,0.3,1.6,0.9,2.3,1.9c0,0.5,0.1,1,0.3,1.5c0.5,1.1,1.8,1.4,2.6,0.4     c0.9-0.9,1.1-2.6,0.6-3.7c-0.5-1.1-1.8-1.4-2.6-0.4c0,0,0,0,0,0.1c-0.4,0-0.9-0.1-1.6-0.3C96.8,29.8,96.2,29.5,95.6,29.1"/>
		</g>
		<g>
			<defs>
				<rect id="SVGID_13_" x="95.4" y="2.7" width="49.9" height="44.1"/>
			</defs>
			<clipPath id="SVGID_14_">
				<use xlink:href="#SVGID_13_" style="overflow:visible;"/>
			</clipPath>
			<path class="st7" d="M116.7,2.7c-0.3,0-0.7,0.1-1.1,0.2c-2,0.5-3.4,2-3.2,3.3c0.2,1.4,2,2.1,4.1,1.6c0.5-0.1,0.9-0.3,1.4-0.5     c0.8,0,2.1,0.3,3,1.8c-0.1,0.2-0.2,0.3-0.2,0.5c-0.2,0.8,0,1.7,0.5,2.3c-0.8,1-1.9,2.1-2.8,2.6c0.9,0.3,1.8,0.9,2.2,1.9     c0.1-0.8,0.5-2.4,1.9-3.3c0.4,0.2,0.9,0.4,1.5,0.5c2.3,0.5,4.5-0.4,5-2.1c0.2-0.8,0-1.8-0.7-2.5c0.5-0.5,1.4-1,2.6-1.2     c0.3,0.2,0.7,0.4,1.1,0.5c1.9,0.6,3.7,0.2,4.3-0.9s-0.5-2.5-2.4-3.1c-1.9-0.6-3.7-0.2-4.3,0.9c-0.2,0.4-0.2,0.8,0,1.2     c-0.5,0.6-1.5,1.4-2.9,1.5c-0.3-0.1-0.6-0.2-0.9-0.3c-1.2-0.3-2.4-0.1-3.3,0.3c-0.7-0.1-2.1-0.5-2.9-1.9c0.3-0.4,0.4-0.9,0.3-1.4     c-0.2-1-1.2-1.7-2.6-1.7C117,2.7,116.8,2.7,116.7,2.7L116.7,2.7z"/>
		</g>
		<g>
			<defs>
				<rect id="SVGID_15_" x="95.4" y="2.7" width="49.9" height="44.1"/>
			</defs>
			<clipPath id="SVGID_16_">
				<use xlink:href="#SVGID_15_" style="overflow:visible;"/>
			</clipPath>
			<path class="st8" d="M116.8,14.1c-2.2,0.1-3.8,1.9-3.8,4.1s1.9,4.1,4.1,4.1c0.6,0,1.2-0.1,1.8-0.4c0.9,0.1,2.9,0.7,3,3     c-0.2,0.4-0.3,0.9-0.3,1.5c0,0.8,0.3,1.7,0.7,2.3c-0.2,0.7-0.8,1.9-2.1,2.5c-1.4-0.5-3.2-0.1-4.5,1.2c-1.7,1.7-1.9,4.2-0.5,5.5     c0.8,0.8,2.1,1,3.2,0.7c0.4,0.4,1.1,1.1,1.5,2.6c0.5-0.5,1.2-1,1.9-1.4c-0.6-0.4-1.2-1.1-1-2.6c1.5-1.6,1.8-3.6,0.8-5     c0.2-0.7,0.8-1.7,2.2-2.3c0.6,0.3,1.2,0.4,2,0.4c2.3,0,4.2-1.9,4.2-4.1c0-0.7-0.2-1.5-0.6-2.1c0.2-0.7,0.9-1.7,2.7-2.2     c1.4,0.8,3,0.8,4.1-0.3c1.2-1.4,1-3.8-0.4-5.5c-1.6-1.7-3.7-2-5-0.6c-1,1.1-1,2.9-0.2,4.5c-0.2,0.7-0.8,2.1-2.3,2.8     c-0.6-0.4-1.5-0.7-2.3-0.7c-0.7,0-1.4,0.2-1.9,0.4c-1.4-0.1-3-0.5-3.2-2.6c0.3-0.5,0.4-1.1,0.4-1.9c0-2.2-1.9-4.1-4.1-4.1     C116.9,14.1,116.9,14.1,116.8,14.1"/>
		</g>
		<g>
			<defs>
				<rect id="SVGID_17_" x="95.4" y="2.7" width="49.9" height="44.1"/>
			</defs>
			<clipPath id="SVGID_18_">
				<use xlink:href="#SVGID_17_" style="overflow:visible;"/>
			</clipPath>
			<path class="st9" d="M143.7,16.3c-0.7,0-1.4,1-1.6,2.4c-0.1,0.8,0,1.7,0.2,2.3c-0.1,0.9-0.5,2.4-1.6,3.2     c-0.3-0.1-0.7-0.2-1.1-0.2c-0.3,0-0.5,0.1-0.8,0.2c-0.8-0.5-2-1.6-2.5-2.9c-0.1,0.1-0.1,0.2-0.2,0.3c-0.3,0.3-0.7,0.6-1.1,0.7     c0.6,0.5,1.8,1.7,2.3,3.3c-0.4,0.6-0.6,1.4-0.7,2.1s0.1,1.5,0.3,2c-0.5,0.6-1.6,1.7-2.9,2.5c-1.6-0.8-4-0.2-5.2,1.6     c-1.2,1.7-1,3.7,0.5,4.7c1.6,0.8,3.8,0.2,5.2-1.6c0.8-1,1-2.3,0.6-3.2c0.7-0.8,1.7-1.9,2.8-2.9c0.3,0.1,0.6,0.2,1,0.2     c0.4,0,0.7-0.2,1.1-0.4c0.5,0.5,1.6,1.8,1.6,3.1c-0.2,0.3-0.4,0.6-0.6,0.9c-1,1.8-1.4,3.4-0.7,3.5c0.6,0.1,2.1-1.2,3.1-3     c1-1.8,1.4-3.4,0.7-3.5c-0.3-0.1-0.6,0.1-1,0.5c-0.5-0.4-1.4-1.2-1.5-3.1c0.3-0.5,0.5-1.1,0.6-1.9c0.1-0.6,0-1.1-0.2-1.7     c0.2-0.7,0.7-2,1.4-3.5c0.8,0.2,1.6-0.8,1.8-2.3c0.2-1.6-0.2-3.1-1-3.4C144,16.3,143.8,16.3,143.7,16.3"/>
		</g>
		<g>
			<defs>
				<rect id="SVGID_19_" x="95.4" y="2.7" width="49.9" height="44.1"/>
			</defs>
			<clipPath id="SVGID_20_">
				<use xlink:href="#SVGID_19_" style="overflow:visible;"/>
			</clipPath>
			<path class="st10" d="M120.7,46.4c-2-0.4-2.6-2.3-1.5-4.3c1.1-2,3.7-3.3,5.7-2.9c2,0.4,2.6,2.3,1.5,4.3     C125.1,45.4,122.6,46.7,120.7,46.4"/>
		</g>
		<g>
			<defs>
				<rect id="SVGID_21_" x="95.4" y="2.7" width="49.9" height="44.1"/>
			</defs>
			<clipPath id="SVGID_22_">
				<use xlink:href="#SVGID_21_" style="overflow:visible;"/>
			</clipPath>
			<path class="st11" d="M102,8.4c-0.3,0-1,0.5-1.8,1.7c-0.1,0.1-0.1,0.2-0.2,0.3l0,0l0,0c-1,1.4-3.1,4.5-4.1,8.9     c0,0.2-0.1,0.3-0.1,0.5c-0.4,1.5-0.5,3.2-0.3,4c0.2,0.7,0.7,0.2,1-1.2c0.3-1.4,0.5-3,0.3-3.8c0.1-1,0.6-2.4,1.8-3.7     c0.4-0.1,1-0.6,1.7-1.7c1.1-1.6,2-3.5,2-4.5C102.4,8.5,102.3,8.4,102,8.4"/>
		</g>
	</g>
</g>
<text transform="matrix(1 0 0 1 182.9238 92.2052)"><tspan x="0" y="0" class="st12" style="font-family:'CharisSIL'; font-size:12px;">research and knowledge at</tspan><tspan x="0" y="12.4" class="st12" style="font-family:'CharisSIL'; font-size:12px;">the heart of development</tspan></text>
<g>
	<path class="st12" d="M162.3,17.8c-0.1-0.1-0.2-0.2-0.3-0.2s-0.2-0.1-0.4-0.1c-0.2,0-0.4,0.1-0.6,0.2s-0.4,0.3-0.6,0.5v3.4   c0,0.1,0,0.1,0.1,0.2s0.1,0.1,0.2,0.1l0.8,0v0.5h-3v-0.5l0.6,0c0.1,0,0.1,0,0.2-0.1s0.1-0.1,0.1-0.2v-4.2h-0.9v-0.4l1.5-0.5h0.5   v1.1c0.1-0.1,0.2-0.2,0.3-0.3s0.3-0.3,0.4-0.4s0.3-0.2,0.4-0.3s0.3-0.1,0.4-0.1c0.1,0,0.1,0,0.2,0s0.1,0,0.2,0s0.1,0,0.2,0.1   s0.1,0,0.1,0.1v1.2H162.3z"/>
	<path class="st12" d="M168.3,21.8c-0.2,0.1-0.3,0.2-0.5,0.3s-0.4,0.2-0.6,0.2s-0.4,0.1-0.6,0.2s-0.4,0.1-0.6,0.1   c-0.4,0-0.7-0.1-1-0.2s-0.6-0.3-0.9-0.6s-0.5-0.6-0.6-0.9s-0.2-0.8-0.2-1.3c0-0.5,0.1-0.9,0.2-1.3s0.3-0.7,0.6-1s0.5-0.5,0.9-0.6   s0.7-0.2,1.1-0.2c0.4,0,0.7,0.1,1,0.2s0.5,0.3,0.7,0.5s0.3,0.5,0.4,0.8s0.1,0.6,0.1,1v0.2c0,0.1,0,0.1,0,0.2h-3.9   c0,0.3,0,0.6,0.1,0.9s0.2,0.6,0.3,0.8s0.4,0.4,0.6,0.6s0.6,0.2,1,0.2c0.2,0,0.3,0,0.5-0.1s0.3-0.1,0.5-0.2s0.3-0.1,0.5-0.2   s0.3-0.2,0.4-0.3V21.8z M167.1,18.4c0-0.2,0-0.4-0.1-0.6s-0.1-0.3-0.2-0.4s-0.2-0.2-0.4-0.3S166.2,17,166,17s-0.4,0-0.6,0.1   s-0.3,0.2-0.5,0.3s-0.2,0.3-0.3,0.5s-0.1,0.4-0.1,0.7h2.6V18.4z"/>
	<path class="st12" d="M173.1,20.6c0,0.3-0.1,0.6-0.2,0.8s-0.3,0.4-0.5,0.6c-0.2,0.2-0.4,0.3-0.7,0.4s-0.6,0.1-1,0.1   c-0.2,0-0.4,0-0.5,0s-0.3,0-0.5-0.1s-0.3-0.1-0.4-0.1s-0.2-0.1-0.3-0.1v-1.6h0.6l0.1,1c0.1,0.1,0.3,0.2,0.4,0.2s0.4,0.1,0.6,0.1   c0.2,0,0.3,0,0.5-0.1s0.2-0.1,0.3-0.2s0.2-0.2,0.2-0.3s0.1-0.2,0.1-0.3c0-0.2,0-0.3-0.1-0.4s-0.2-0.2-0.3-0.3s-0.3-0.2-0.5-0.3   s-0.4-0.2-0.6-0.3c-0.2-0.1-0.4-0.2-0.6-0.3s-0.3-0.2-0.4-0.3s-0.2-0.2-0.3-0.4s-0.1-0.3-0.1-0.5c0-0.3,0-0.5,0.1-0.7   s0.2-0.4,0.4-0.5s0.4-0.3,0.7-0.3s0.6-0.1,0.9-0.1c0.2,0,0.3,0,0.5,0s0.3,0,0.4,0.1s0.2,0.1,0.4,0.1s0.2,0.1,0.2,0.1v1.4h-0.6   l-0.1-0.8c-0.1-0.1-0.2-0.1-0.4-0.2s-0.3-0.1-0.5-0.1c-0.3,0-0.6,0.1-0.7,0.2s-0.2,0.3-0.2,0.6c0,0.1,0,0.3,0.1,0.4   s0.1,0.2,0.2,0.3s0.2,0.2,0.4,0.3s0.4,0.2,0.6,0.3c0.2,0.1,0.4,0.2,0.6,0.3c0.2,0.1,0.3,0.2,0.5,0.3s0.2,0.3,0.3,0.4   C173.1,20.3,173.1,20.4,173.1,20.6z"/>
	<path class="st12" d="M179,21.8c-0.2,0.1-0.3,0.2-0.5,0.3s-0.4,0.2-0.6,0.2s-0.4,0.1-0.6,0.2s-0.4,0.1-0.6,0.1   c-0.4,0-0.7-0.1-1-0.2s-0.6-0.3-0.9-0.6s-0.5-0.6-0.6-0.9s-0.2-0.8-0.2-1.3c0-0.5,0.1-0.9,0.2-1.3s0.3-0.7,0.6-1s0.5-0.5,0.9-0.6   s0.7-0.2,1.1-0.2c0.4,0,0.7,0.1,1,0.2s0.5,0.3,0.7,0.5s0.3,0.5,0.4,0.8s0.1,0.6,0.1,1v0.2c0,0.1,0,0.1,0,0.2h-3.9   c0,0.3,0,0.6,0.1,0.9s0.2,0.6,0.3,0.8s0.4,0.4,0.6,0.6s0.6,0.2,1,0.2c0.2,0,0.3,0,0.5-0.1s0.3-0.1,0.5-0.2s0.3-0.1,0.5-0.2   s0.3-0.2,0.4-0.3V21.8z M177.8,18.4c0-0.2,0-0.4-0.1-0.6s-0.1-0.3-0.2-0.4s-0.2-0.2-0.4-0.3s-0.3-0.1-0.5-0.1s-0.4,0-0.6,0.1   s-0.3,0.2-0.5,0.3s-0.2,0.3-0.3,0.5s-0.1,0.4-0.1,0.7h2.6V18.4z"/>
	<path class="st12" d="M183.5,22.4l-0.2-0.7c-0.2,0.2-0.4,0.3-0.7,0.4c-0.1,0.1-0.2,0.1-0.3,0.2s-0.2,0.1-0.3,0.1s-0.2,0.1-0.4,0.1   s-0.2,0-0.4,0c-0.2,0-0.4,0-0.6-0.1s-0.4-0.2-0.5-0.3c-0.1-0.1-0.3-0.3-0.3-0.5s-0.1-0.4-0.1-0.7c0-0.1,0-0.3,0-0.4   s0.1-0.3,0.2-0.4c0.1-0.1,0.2-0.2,0.4-0.4s0.4-0.2,0.6-0.3c0.3-0.1,0.6-0.2,1-0.3s0.8-0.2,1.4-0.3v-0.5c0-0.4-0.1-0.7-0.3-0.9   s-0.5-0.3-0.8-0.3c-0.2,0-0.4,0-0.5,0.1s-0.3,0.1-0.3,0.1v1h-0.9c-0.1,0-0.1,0-0.2,0s-0.1,0-0.1,0s-0.1-0.1-0.1-0.1s0-0.1,0-0.2   c0-0.2,0.1-0.5,0.2-0.6s0.3-0.3,0.6-0.4c0.2-0.1,0.5-0.2,0.8-0.3c0.3-0.1,0.6-0.1,0.9-0.1c0.4,0,0.7,0,0.9,0.1s0.4,0.2,0.6,0.4   s0.2,0.3,0.3,0.6s0.1,0.5,0.1,0.7v3.4c0,0.1,0,0.1,0.1,0.2s0.1,0.1,0.2,0.1l0.6,0v0.5H183.5z M183.4,19.2c-0.5,0.1-1,0.3-1.3,0.4   s-0.6,0.3-0.7,0.4s-0.3,0.3-0.3,0.4s-0.1,0.3-0.1,0.4c0,0.1,0,0.2,0.1,0.4s0.1,0.2,0.2,0.3s0.2,0.2,0.3,0.2s0.2,0.1,0.4,0.1   c0.2,0,0.3,0,0.5-0.1s0.3-0.1,0.5-0.2c0.2-0.1,0.3-0.2,0.5-0.3V19.2z"/>
	<path class="st12" d="M189.6,17.8c-0.1-0.1-0.2-0.2-0.3-0.2s-0.2-0.1-0.4-0.1c-0.2,0-0.4,0.1-0.6,0.2s-0.4,0.3-0.6,0.5v3.4   c0,0.1,0,0.1,0.1,0.2s0.1,0.1,0.2,0.1l0.8,0v0.5h-3v-0.5l0.6,0c0.1,0,0.1,0,0.2-0.1s0.1-0.1,0.1-0.2v-4.2h-0.9v-0.4l1.5-0.5h0.5   v1.1c0.1-0.1,0.2-0.2,0.3-0.3s0.3-0.3,0.4-0.4s0.3-0.2,0.4-0.3s0.3-0.1,0.4-0.1c0.1,0,0.1,0,0.2,0s0.1,0,0.2,0s0.1,0,0.2,0.1   s0.1,0,0.1,0.1v1.2H189.6z"/>
	<path class="st12" d="M195.4,21.9c-0.1,0.1-0.3,0.1-0.4,0.2s-0.3,0.1-0.5,0.2s-0.3,0.1-0.5,0.1s-0.4,0.1-0.6,0.1   c-0.4,0-0.8-0.1-1.1-0.2s-0.6-0.4-0.9-0.6s-0.4-0.6-0.6-1s-0.2-0.8-0.2-1.2c0-0.5,0.1-0.9,0.2-1.3s0.4-0.7,0.6-1s0.6-0.5,0.9-0.6   s0.7-0.2,1.1-0.2c0.3,0,0.5,0,0.7,0.1s0.4,0.1,0.6,0.2s0.3,0.2,0.4,0.4s0.1,0.3,0.1,0.5c0,0.1,0,0.2-0.1,0.3s-0.1,0.2-0.2,0.2   s-0.1,0.1-0.2,0.1s-0.2,0-0.3,0c-0.1,0-0.2,0-0.3-0.1s-0.2-0.1-0.3-0.1v-1c-0.1,0-0.2-0.1-0.3-0.1s-0.2,0-0.2,0   c-0.3,0-0.5,0.1-0.7,0.2s-0.4,0.3-0.5,0.5s-0.3,0.5-0.3,0.8s-0.1,0.6-0.1,1c0,0.3,0,0.6,0.1,0.9s0.2,0.5,0.4,0.8s0.4,0.4,0.6,0.5   s0.5,0.2,0.9,0.2c0.3,0,0.5,0,0.8-0.1s0.5-0.2,0.8-0.4V21.9z"/>
	<path class="st12" d="M199.7,22.4v-0.5l0.5,0c0.1,0,0.1,0,0.2-0.1s0.1-0.1,0.1-0.2v-3.1c0-0.2,0-0.3-0.1-0.5s-0.1-0.3-0.2-0.4   s-0.2-0.2-0.4-0.2s-0.3-0.1-0.6-0.1c-0.1,0-0.2,0-0.3,0s-0.2,0-0.3,0.1s-0.2,0.1-0.3,0.1s-0.2,0.1-0.3,0.1v3.9c0,0.1,0,0.1,0.1,0.2   s0.1,0.1,0.2,0.1l0.5,0v0.5H196v-0.5l0.6,0c0.1,0,0.1,0,0.2-0.1s0.1-0.1,0.1-0.2v-7.2H196V14l1.5-0.5h0.5v3.7   c0.1-0.1,0.2-0.1,0.4-0.2s0.3-0.2,0.5-0.2s0.4-0.1,0.6-0.2s0.4-0.1,0.5-0.1c0.2,0,0.4,0,0.6,0.1s0.4,0.2,0.5,0.3s0.3,0.3,0.3,0.6   s0.1,0.5,0.1,0.8v3.3c0,0.1,0,0.1,0.1,0.2s0.1,0.1,0.2,0.1l0.5,0v0.5H199.7z"/>
	<path class="st12" d="M210.3,22.4l-0.2-0.7c-0.2,0.2-0.4,0.3-0.7,0.4c-0.1,0.1-0.2,0.1-0.3,0.2s-0.2,0.1-0.3,0.1s-0.2,0.1-0.4,0.1   s-0.2,0-0.4,0c-0.2,0-0.4,0-0.6-0.1s-0.4-0.2-0.5-0.3c-0.1-0.1-0.3-0.3-0.3-0.5s-0.1-0.4-0.1-0.7c0-0.1,0-0.3,0-0.4   s0.1-0.3,0.2-0.4c0.1-0.1,0.2-0.2,0.4-0.4s0.4-0.2,0.6-0.3c0.3-0.1,0.6-0.2,1-0.3s0.8-0.2,1.4-0.3v-0.5c0-0.4-0.1-0.7-0.3-0.9   S209.4,17,209,17c-0.2,0-0.4,0-0.5,0.1s-0.3,0.1-0.3,0.1v1h-0.9c-0.1,0-0.1,0-0.2,0s-0.1,0-0.1,0s-0.1-0.1-0.1-0.1s0-0.1,0-0.2   c0-0.2,0.1-0.5,0.2-0.6s0.3-0.3,0.6-0.4c0.2-0.1,0.5-0.2,0.8-0.3c0.3-0.1,0.6-0.1,0.9-0.1c0.4,0,0.7,0,0.9,0.1s0.4,0.2,0.6,0.4   s0.2,0.3,0.3,0.6s0.1,0.5,0.1,0.7v3.4c0,0.1,0,0.1,0.1,0.2s0.1,0.1,0.2,0.1l0.6,0v0.5H210.3z M210.2,19.2c-0.5,0.1-1,0.3-1.3,0.4   s-0.6,0.3-0.7,0.4s-0.3,0.3-0.3,0.4s-0.1,0.3-0.1,0.4c0,0.1,0,0.2,0.1,0.4s0.1,0.2,0.2,0.3s0.2,0.2,0.3,0.2s0.2,0.1,0.4,0.1   c0.2,0,0.3,0,0.5-0.1s0.3-0.1,0.5-0.2c0.2-0.1,0.3-0.2,0.5-0.3V19.2z"/>
	<path class="st12" d="M216.2,22.4v-0.5l0.5,0c0.1,0,0.1,0,0.2-0.1s0.1-0.1,0.1-0.2v-3.1c0-0.4-0.1-0.7-0.3-0.9s-0.5-0.3-0.9-0.3   c-0.2,0-0.5,0-0.7,0.1s-0.4,0.1-0.6,0.2v3.9c0,0.1,0,0.1,0.1,0.2s0.1,0.1,0.2,0.1l0.5,0v0.5h-2.7v-0.5l0.6,0c0.1,0,0.1,0,0.2-0.1   s0.1-0.1,0.1-0.2v-4.2h-0.8v-0.4l1.5-0.5h0.5v0.6c0.2-0.1,0.3-0.2,0.5-0.3s0.3-0.2,0.5-0.2s0.3-0.1,0.5-0.2s0.3-0.1,0.5-0.1   c0.5,0,0.9,0.2,1.2,0.5s0.4,0.8,0.4,1.4v3.3c0,0.1,0,0.1,0.1,0.2s0.1,0.1,0.2,0.1l0.5,0v0.5H216.2z"/>
	<path class="st12" d="M223.7,22.4v-0.6c-0.1,0.1-0.3,0.2-0.4,0.3s-0.3,0.2-0.5,0.2s-0.3,0.1-0.5,0.2s-0.3,0.1-0.5,0.1   c-0.4,0-0.7-0.1-1-0.3s-0.5-0.4-0.7-0.7s-0.3-0.6-0.4-0.9s-0.1-0.7-0.1-1c0-0.4,0.1-0.8,0.2-1.2s0.3-0.7,0.6-1s0.6-0.5,1-0.7   s0.8-0.3,1.3-0.3c0.1,0,0.2,0,0.3,0s0.2,0,0.3,0s0.2,0,0.3,0s0.1,0,0.2,0v-2.2h-0.9V14l1.5-0.5h0.5v8.1c0,0.1,0,0.1,0.1,0.2   s0.1,0.1,0.2,0.1l0.5,0v0.5H223.7z M223.7,17.2c-0.1,0-0.1,0-0.2-0.1s-0.2,0-0.3-0.1s-0.2,0-0.3,0s-0.2,0-0.3,0   c-0.3,0-0.6,0.1-0.8,0.2s-0.4,0.3-0.6,0.5s-0.3,0.5-0.4,0.8c-0.1,0.3-0.1,0.6-0.1,1c0,0.3,0,0.6,0.1,0.9c0.1,0.3,0.2,0.5,0.3,0.7   s0.3,0.4,0.5,0.5s0.5,0.2,0.7,0.2c0.1,0,0.2,0,0.4,0s0.2-0.1,0.3-0.1s0.2-0.1,0.3-0.1s0.2-0.1,0.3-0.1V17.2z"/>
	<path class="st12" d="M233.7,22.4v-0.5l-1.5-2.3h-0.7v2c0,0.1,0,0.1,0.1,0.2s0.1,0.1,0.2,0.1l0.5,0v0.5h-2.7v-0.5l0.6,0   c0.1,0,0.1,0,0.2-0.1s0.1-0.1,0.1-0.2v-7.2h-0.9V14l1.5-0.5h0.5v5.8h0.2l1.8-2c0,0,0-0.1,0-0.1s-0.1-0.1-0.1-0.1l-0.5,0v-0.5h2.3   v0.5l-0.8,0.1l-1.6,1.7l2.1,3l0.6,0.1v0.5H233.7z"/>
	<path class="st12" d="M239.7,22.4v-0.5l0.5,0c0.1,0,0.1,0,0.2-0.1s0.1-0.1,0.1-0.2v-3.1c0-0.4-0.1-0.7-0.3-0.9s-0.5-0.3-0.9-0.3   c-0.2,0-0.5,0-0.7,0.1s-0.4,0.1-0.6,0.2v3.9c0,0.1,0,0.1,0.1,0.2s0.1,0.1,0.2,0.1l0.5,0v0.5H236v-0.5l0.6,0c0.1,0,0.1,0,0.2-0.1   s0.1-0.1,0.1-0.2v-4.2H236v-0.4l1.5-0.5h0.5v0.6c0.2-0.1,0.3-0.2,0.5-0.3s0.3-0.2,0.5-0.2s0.3-0.1,0.5-0.2s0.3-0.1,0.5-0.1   c0.5,0,0.9,0.2,1.2,0.5s0.4,0.8,0.4,1.4v3.3c0,0.1,0,0.1,0.1,0.2s0.1,0.1,0.2,0.1l0.5,0v0.5H239.7z"/>
	<path class="st12" d="M248.7,19.5c0,0.4-0.1,0.8-0.2,1.2s-0.3,0.7-0.6,1s-0.5,0.5-0.9,0.6s-0.7,0.2-1.2,0.2s-0.8-0.1-1.2-0.2   s-0.7-0.4-0.9-0.6s-0.4-0.6-0.6-1s-0.2-0.8-0.2-1.2c0-0.4,0.1-0.8,0.2-1.2s0.3-0.7,0.6-1s0.6-0.5,0.9-0.6s0.8-0.2,1.2-0.2   s0.8,0.1,1.2,0.2s0.6,0.4,0.9,0.7s0.4,0.6,0.6,1S248.7,19.1,248.7,19.5z M247.5,19.5c0-0.3,0-0.6-0.1-0.9s-0.2-0.6-0.3-0.8   s-0.3-0.4-0.5-0.6s-0.4-0.2-0.7-0.2c-0.3,0-0.5,0.1-0.7,0.2s-0.4,0.3-0.5,0.6s-0.2,0.5-0.3,0.8s-0.1,0.6-0.1,0.9   c0,0.3,0,0.6,0.1,0.9s0.2,0.6,0.3,0.8s0.3,0.4,0.5,0.6s0.4,0.2,0.7,0.2c0.3,0,0.5-0.1,0.7-0.2s0.4-0.3,0.5-0.6s0.2-0.5,0.3-0.8   S247.5,19.8,247.5,19.5z"/>
	<path class="st12" d="M257.8,17.1l-1.6,5.2h-0.8l-1.4-4.5l-1.6,4.5h-0.9l-1.5-5.2l-0.7-0.1v-0.5h2.6v0.5l-0.6,0   c-0.1,0-0.1,0-0.2,0.1s0,0.1,0,0.2l1,3.7l1.5-4.5h0.9l1.4,4.5l1.1-3.7c0-0.1,0-0.1,0-0.2s-0.1-0.1-0.1-0.1l-0.6,0v-0.5h2.1v0.5   L257.8,17.1z"/>
	<path class="st12" d="M258.8,22.4v-0.5l0.6,0c0.1,0,0.1,0,0.2-0.1s0.1-0.1,0.1-0.2v-7.2h-0.9V14l1.5-0.5h0.5v8.1   c0,0.1,0,0.1,0.1,0.2s0.1,0.1,0.2,0.1l0.7,0v0.5H258.8z"/>
	<path class="st12" d="M267.6,21.8c-0.2,0.1-0.3,0.2-0.5,0.3s-0.4,0.2-0.6,0.2s-0.4,0.1-0.6,0.2s-0.4,0.1-0.6,0.1   c-0.4,0-0.7-0.1-1-0.2s-0.6-0.3-0.9-0.6s-0.5-0.6-0.6-0.9s-0.2-0.8-0.2-1.3c0-0.5,0.1-0.9,0.2-1.3s0.3-0.7,0.6-1s0.5-0.5,0.9-0.6   s0.7-0.2,1.1-0.2c0.4,0,0.7,0.1,1,0.2s0.5,0.3,0.7,0.5s0.3,0.5,0.4,0.8s0.1,0.6,0.1,1v0.2c0,0.1,0,0.1,0,0.2h-3.9   c0,0.3,0,0.6,0.1,0.9s0.2,0.6,0.3,0.8s0.4,0.4,0.6,0.6s0.6,0.2,1,0.2c0.2,0,0.3,0,0.5-0.1s0.3-0.1,0.5-0.2s0.3-0.1,0.5-0.2   s0.3-0.2,0.4-0.3V21.8z M266.3,18.4c0-0.2,0-0.4-0.1-0.6s-0.1-0.3-0.2-0.4s-0.2-0.2-0.4-0.3s-0.3-0.1-0.5-0.1s-0.4,0-0.6,0.1   s-0.3,0.2-0.5,0.3s-0.2,0.3-0.3,0.5s-0.1,0.4-0.1,0.7h2.6V18.4z"/>
	<path class="st12" d="M272.5,22.4v-0.6c-0.1,0.1-0.3,0.2-0.4,0.3s-0.3,0.2-0.5,0.2s-0.3,0.1-0.5,0.2s-0.3,0.1-0.5,0.1   c-0.4,0-0.7-0.1-1-0.3s-0.5-0.4-0.7-0.7s-0.3-0.6-0.4-0.9s-0.1-0.7-0.1-1c0-0.4,0.1-0.8,0.2-1.2s0.3-0.7,0.6-1s0.6-0.5,1-0.7   s0.8-0.3,1.3-0.3c0.1,0,0.2,0,0.3,0s0.2,0,0.3,0s0.2,0,0.3,0s0.1,0,0.2,0v-2.2h-0.9V14l1.5-0.5h0.5v8.1c0,0.1,0,0.1,0.1,0.2   s0.1,0.1,0.2,0.1l0.5,0v0.5H272.5z M272.5,17.2c-0.1,0-0.1,0-0.2-0.1s-0.2,0-0.3-0.1s-0.2,0-0.3,0s-0.2,0-0.3,0   c-0.3,0-0.6,0.1-0.8,0.2s-0.4,0.3-0.6,0.5s-0.3,0.5-0.4,0.8c-0.1,0.3-0.1,0.6-0.1,1c0,0.3,0,0.6,0.1,0.9c0.1,0.3,0.2,0.5,0.3,0.7   s0.3,0.4,0.5,0.5s0.5,0.2,0.7,0.2c0.1,0,0.2,0,0.4,0s0.2-0.1,0.3-0.1s0.2-0.1,0.3-0.1s0.2-0.1,0.3-0.1V17.2z"/>
	<path class="st12" d="M279.6,17.4c0.1,0.1,0.2,0.3,0.2,0.5s0.1,0.4,0.1,0.6c0,0.3-0.1,0.6-0.2,0.8s-0.3,0.5-0.6,0.6   s-0.5,0.3-0.8,0.4s-0.6,0.1-1,0.1c0,0.1-0.1,0.2-0.1,0.3s0,0.2,0,0.3s0,0.1,0,0.2s0,0.1,0,0.1c0.2,0,0.4,0,0.6,0.1s0.5,0.1,0.7,0.1   s0.5,0.1,0.7,0.2s0.4,0.2,0.6,0.3s0.3,0.3,0.4,0.4s0.2,0.4,0.2,0.6c0,0.3-0.1,0.6-0.2,0.8s-0.4,0.5-0.7,0.7s-0.6,0.4-1,0.5   s-0.8,0.2-1.2,0.2c-0.4,0-0.7,0-1-0.1s-0.5-0.2-0.7-0.4s-0.3-0.3-0.4-0.5s-0.2-0.4-0.2-0.7c0-0.2,0-0.3,0.1-0.5s0.1-0.3,0.2-0.4   s0.2-0.2,0.4-0.3s0.3-0.2,0.6-0.2c0-0.1,0-0.1-0.1-0.2s0-0.1,0-0.1s0-0.1,0-0.1s0-0.1,0-0.2c0-0.2,0-0.3,0.1-0.5s0.2-0.4,0.5-0.6   c-0.2,0-0.4-0.1-0.6-0.2s-0.3-0.2-0.5-0.4s-0.2-0.3-0.3-0.5s-0.1-0.4-0.1-0.7c0-0.3,0.1-0.6,0.2-0.9s0.3-0.5,0.5-0.6   s0.5-0.3,0.8-0.4s0.6-0.1,1-0.1c0.1,0,0.3,0,0.4,0s0.3,0.1,0.4,0.1s0.2,0.1,0.3,0.1s0.2,0.1,0.3,0.1h1.6v0.6H279.6z M279.5,23.2   c0-0.2,0-0.3-0.1-0.4s-0.2-0.2-0.3-0.3s-0.3-0.1-0.5-0.2s-0.3-0.1-0.5-0.1s-0.3-0.1-0.5-0.1s-0.3,0-0.4-0.1   c-0.2,0.1-0.3,0.1-0.4,0.2s-0.2,0.2-0.3,0.3s-0.1,0.2-0.1,0.3s0,0.2,0,0.3c0,0.1,0,0.3,0.1,0.5s0.2,0.3,0.3,0.5s0.3,0.3,0.5,0.3   s0.4,0.1,0.7,0.1c0.3,0,0.5,0,0.7-0.1s0.4-0.2,0.5-0.3s0.2-0.3,0.3-0.5S279.5,23.3,279.5,23.2z M278.8,18.4c0-0.2,0-0.4-0.1-0.5   s-0.1-0.3-0.2-0.5s-0.2-0.2-0.3-0.3s-0.3-0.1-0.5-0.1c-0.2,0-0.3,0-0.5,0.1s-0.3,0.2-0.4,0.3s-0.2,0.3-0.2,0.5s-0.1,0.4-0.1,0.6   c0,0.2,0,0.4,0.1,0.6s0.1,0.3,0.2,0.5s0.2,0.2,0.4,0.3s0.3,0.1,0.5,0.1c0.2,0,0.3,0,0.5-0.1s0.3-0.2,0.3-0.3s0.2-0.3,0.2-0.5   S278.8,18.6,278.8,18.4z"/>
	<path class="st12" d="M286.5,21.8c-0.2,0.1-0.3,0.2-0.5,0.3s-0.4,0.2-0.6,0.2s-0.4,0.1-0.6,0.2s-0.4,0.1-0.6,0.1   c-0.4,0-0.7-0.1-1-0.2s-0.6-0.3-0.9-0.6s-0.5-0.6-0.6-0.9s-0.2-0.8-0.2-1.3c0-0.5,0.1-0.9,0.2-1.3s0.3-0.7,0.6-1s0.5-0.5,0.9-0.6   s0.7-0.2,1.1-0.2c0.4,0,0.7,0.1,1,0.2s0.5,0.3,0.7,0.5s0.3,0.5,0.4,0.8s0.1,0.6,0.1,1v0.2c0,0.1,0,0.1,0,0.2h-3.9   c0,0.3,0,0.6,0.1,0.9s0.2,0.6,0.3,0.8s0.4,0.4,0.6,0.6s0.6,0.2,1,0.2c0.2,0,0.3,0,0.5-0.1s0.3-0.1,0.5-0.2s0.3-0.1,0.5-0.2   s0.3-0.2,0.4-0.3V21.8z M285.3,18.4c0-0.2,0-0.4-0.1-0.6s-0.1-0.3-0.2-0.4s-0.2-0.2-0.4-0.3s-0.3-0.1-0.5-0.1s-0.4,0-0.6,0.1   s-0.3,0.2-0.5,0.3s-0.2,0.3-0.3,0.5s-0.1,0.4-0.1,0.7h2.6V18.4z"/>
	<path class="st12" d="M294.6,22.4l-0.2-0.7c-0.2,0.2-0.4,0.3-0.7,0.4c-0.1,0.1-0.2,0.1-0.3,0.2s-0.2,0.1-0.3,0.1s-0.2,0.1-0.4,0.1   s-0.2,0-0.4,0c-0.2,0-0.4,0-0.6-0.1s-0.4-0.2-0.5-0.3c-0.1-0.1-0.3-0.3-0.3-0.5s-0.1-0.4-0.1-0.7c0-0.1,0-0.3,0-0.4   s0.1-0.3,0.2-0.4c0.1-0.1,0.2-0.2,0.4-0.4s0.4-0.2,0.6-0.3c0.3-0.1,0.6-0.2,1-0.3s0.8-0.2,1.4-0.3v-0.5c0-0.4-0.1-0.7-0.3-0.9   s-0.5-0.3-0.8-0.3c-0.2,0-0.4,0-0.5,0.1s-0.3,0.1-0.3,0.1v1h-0.9c-0.1,0-0.1,0-0.2,0s-0.1,0-0.1,0s-0.1-0.1-0.1-0.1s0-0.1,0-0.2   c0-0.2,0.1-0.5,0.2-0.6s0.3-0.3,0.6-0.4c0.2-0.1,0.5-0.2,0.8-0.3c0.3-0.1,0.6-0.1,0.9-0.1c0.4,0,0.7,0,0.9,0.1s0.4,0.2,0.6,0.4   s0.2,0.3,0.3,0.6s0.1,0.5,0.1,0.7v3.4c0,0.1,0,0.1,0.1,0.2s0.1,0.1,0.2,0.1l0.6,0v0.5H294.6z M294.4,19.2c-0.5,0.1-1,0.3-1.3,0.4   s-0.6,0.3-0.7,0.4s-0.3,0.3-0.3,0.4s-0.1,0.3-0.1,0.4c0,0.1,0,0.2,0.1,0.4s0.1,0.2,0.2,0.3s0.2,0.2,0.3,0.2s0.2,0.1,0.4,0.1   c0.2,0,0.3,0,0.5-0.1s0.3-0.1,0.5-0.2c0.2-0.1,0.3-0.2,0.5-0.3V19.2z"/>
	<path class="st12" d="M300.5,22.1c-0.1,0.1-0.3,0.1-0.5,0.2c-0.1,0.1-0.3,0.1-0.5,0.1s-0.4,0.1-0.6,0.1c-0.5,0-0.8-0.1-1-0.3   s-0.3-0.6-0.3-1v-4h-0.8v-0.4l0.8-0.4l0.5-1.3h0.5v1.5h1.7v0.6h-1.7v3.4c0,0.2,0,0.4,0.1,0.6s0.1,0.3,0.2,0.4s0.2,0.2,0.3,0.2   s0.3,0.1,0.4,0.1c0.1,0,0.2,0,0.3,0s0.2,0,0.3-0.1c0.1,0,0.2-0.1,0.2-0.1V22.1z"/>
	<path class="st12" d="M162.2,34.5c-0.1,0.1-0.3,0.1-0.5,0.2c-0.1,0.1-0.3,0.1-0.5,0.1s-0.4,0.1-0.6,0.1c-0.5,0-0.8-0.1-1-0.3   s-0.3-0.6-0.3-1v-4h-0.8v-0.4l0.8-0.4l0.5-1.3h0.5V29h1.7v0.6h-1.7v3.4c0,0.2,0,0.4,0.1,0.6s0.1,0.3,0.2,0.4s0.2,0.2,0.3,0.2   s0.3,0.1,0.4,0.1c0.1,0,0.2,0,0.3,0s0.2,0,0.3-0.1c0.1,0,0.2-0.1,0.2-0.1V34.5z"/>
	<path class="st12" d="M166.2,34.8v-0.5l0.5,0c0.1,0,0.1,0,0.2-0.1s0.1-0.1,0.1-0.2v-3.1c0-0.2,0-0.3-0.1-0.5s-0.1-0.3-0.2-0.4   s-0.2-0.2-0.4-0.2s-0.3-0.1-0.6-0.1c-0.1,0-0.2,0-0.3,0s-0.2,0-0.3,0.1s-0.2,0.1-0.3,0.1s-0.2,0.1-0.3,0.1V34c0,0.1,0,0.1,0.1,0.2   s0.1,0.1,0.2,0.1l0.5,0v0.5h-2.7v-0.5l0.6,0c0.1,0,0.1,0,0.2-0.1s0.1-0.1,0.1-0.2v-7.2h-0.9v-0.4l1.5-0.5h0.5v3.7   c0.1-0.1,0.2-0.1,0.4-0.2s0.3-0.2,0.5-0.2s0.4-0.1,0.6-0.2s0.4-0.1,0.5-0.1c0.2,0,0.4,0,0.6,0.1s0.4,0.2,0.5,0.3s0.3,0.3,0.3,0.6   s0.1,0.5,0.1,0.8V34c0,0.1,0,0.1,0.1,0.2s0.1,0.1,0.2,0.1l0.5,0v0.5H166.2z"/>
	<path class="st12" d="M174.6,34.2c-0.2,0.1-0.3,0.2-0.5,0.3s-0.4,0.2-0.6,0.2s-0.4,0.1-0.6,0.2s-0.4,0.1-0.6,0.1   c-0.4,0-0.7-0.1-1-0.2s-0.6-0.3-0.9-0.6s-0.5-0.6-0.6-0.9s-0.2-0.8-0.2-1.3c0-0.5,0.1-0.9,0.2-1.3s0.3-0.7,0.6-1s0.5-0.5,0.9-0.6   s0.7-0.2,1.1-0.2c0.4,0,0.7,0.1,1,0.2s0.5,0.3,0.7,0.5s0.3,0.5,0.4,0.8s0.1,0.6,0.1,1v0.2c0,0.1,0,0.1,0,0.2h-3.9   c0,0.3,0,0.6,0.1,0.9s0.2,0.6,0.3,0.8s0.4,0.4,0.6,0.6s0.6,0.2,1,0.2c0.2,0,0.3,0,0.5-0.1s0.3-0.1,0.5-0.2s0.3-0.1,0.5-0.2   s0.3-0.2,0.4-0.3V34.2z M173.4,30.8c0-0.2,0-0.4-0.1-0.6s-0.1-0.3-0.2-0.4s-0.2-0.2-0.4-0.3s-0.3-0.1-0.5-0.1s-0.4,0-0.6,0.1   s-0.3,0.2-0.5,0.3s-0.2,0.3-0.3,0.5s-0.1,0.4-0.1,0.7h2.6V30.8z"/>
	<path class="st12" d="M182.5,34.8v-0.5l0.5,0c0.1,0,0.1,0,0.2-0.1s0.1-0.1,0.1-0.2v-3.1c0-0.2,0-0.3-0.1-0.5s-0.1-0.3-0.2-0.4   s-0.2-0.2-0.4-0.2s-0.3-0.1-0.6-0.1c-0.1,0-0.2,0-0.3,0s-0.2,0-0.3,0.1s-0.2,0.1-0.3,0.1s-0.2,0.1-0.3,0.1V34c0,0.1,0,0.1,0.1,0.2   s0.1,0.1,0.2,0.1l0.5,0v0.5h-2.7v-0.5l0.6,0c0.1,0,0.1,0,0.2-0.1s0.1-0.1,0.1-0.2v-7.2h-0.9v-0.4l1.5-0.5h0.5v3.7   c0.1-0.1,0.2-0.1,0.4-0.2s0.3-0.2,0.5-0.2s0.4-0.1,0.6-0.2s0.4-0.1,0.5-0.1c0.2,0,0.4,0,0.6,0.1s0.4,0.2,0.5,0.3s0.3,0.3,0.3,0.6   s0.1,0.5,0.1,0.8V34c0,0.1,0,0.1,0.1,0.2s0.1,0.1,0.2,0.1l0.5,0v0.5H182.5z"/>
	<path class="st12" d="M190.9,34.2c-0.2,0.1-0.3,0.2-0.5,0.3s-0.4,0.2-0.6,0.2s-0.4,0.1-0.6,0.2s-0.4,0.1-0.6,0.1   c-0.4,0-0.7-0.1-1-0.2s-0.6-0.3-0.9-0.6s-0.5-0.6-0.6-0.9s-0.2-0.8-0.2-1.3c0-0.5,0.1-0.9,0.2-1.3s0.3-0.7,0.6-1s0.5-0.5,0.9-0.6   s0.7-0.2,1.1-0.2c0.4,0,0.7,0.1,1,0.2s0.5,0.3,0.7,0.5s0.3,0.5,0.4,0.8s0.1,0.6,0.1,1v0.2c0,0.1,0,0.1,0,0.2H187   c0,0.3,0,0.6,0.1,0.9s0.2,0.6,0.3,0.8s0.4,0.4,0.6,0.6s0.6,0.2,1,0.2c0.2,0,0.3,0,0.5-0.1s0.3-0.1,0.5-0.2s0.3-0.1,0.5-0.2   s0.3-0.2,0.4-0.3V34.2z M189.7,30.8c0-0.2,0-0.4-0.1-0.6s-0.1-0.3-0.2-0.4s-0.2-0.2-0.4-0.3s-0.3-0.1-0.5-0.1s-0.4,0-0.6,0.1   s-0.3,0.2-0.5,0.3s-0.2,0.3-0.3,0.5s-0.1,0.4-0.1,0.7h2.6V30.8z"/>
	<path class="st12" d="M195.4,34.8l-0.2-0.7c-0.2,0.2-0.4,0.3-0.7,0.4c-0.1,0.1-0.2,0.1-0.3,0.2s-0.2,0.1-0.3,0.1s-0.2,0.1-0.4,0.1   s-0.2,0-0.4,0c-0.2,0-0.4,0-0.6-0.1s-0.4-0.2-0.5-0.3c-0.1-0.1-0.3-0.3-0.3-0.5s-0.1-0.4-0.1-0.7c0-0.1,0-0.3,0-0.4   s0.1-0.3,0.2-0.4c0.1-0.1,0.2-0.2,0.4-0.4s0.4-0.2,0.6-0.3c0.3-0.1,0.6-0.2,1-0.3s0.8-0.2,1.4-0.3v-0.5c0-0.4-0.1-0.7-0.3-0.9   s-0.5-0.3-0.8-0.3c-0.2,0-0.4,0-0.5,0.1s-0.3,0.1-0.3,0.1v1h-0.9c-0.1,0-0.1,0-0.2,0s-0.1,0-0.1,0s-0.1-0.1-0.1-0.1s0-0.1,0-0.2   c0-0.2,0.1-0.5,0.2-0.6s0.3-0.3,0.6-0.4c0.2-0.1,0.5-0.2,0.8-0.3c0.3-0.1,0.6-0.1,0.9-0.1c0.4,0,0.7,0,0.9,0.1s0.4,0.2,0.6,0.4   s0.2,0.3,0.3,0.6s0.1,0.5,0.1,0.7V34c0,0.1,0,0.1,0.1,0.2s0.1,0.1,0.2,0.1l0.6,0v0.5H195.4z M195.3,31.6c-0.5,0.1-1,0.3-1.3,0.4   s-0.6,0.3-0.7,0.4s-0.3,0.3-0.3,0.4s-0.1,0.3-0.1,0.4c0,0.1,0,0.2,0.1,0.4s0.1,0.2,0.2,0.3s0.2,0.2,0.3,0.2s0.2,0.1,0.4,0.1   c0.2,0,0.3,0,0.5-0.1s0.3-0.1,0.5-0.2c0.2-0.1,0.3-0.2,0.5-0.3V31.6z"/>
	<path class="st12" d="M201.5,30.2c-0.1-0.1-0.2-0.2-0.3-0.2s-0.2-0.1-0.4-0.1c-0.2,0-0.4,0.1-0.6,0.2s-0.4,0.3-0.6,0.5V34   c0,0.1,0,0.1,0.1,0.2s0.1,0.1,0.2,0.1l0.8,0v0.5h-3v-0.5l0.6,0c0.1,0,0.1,0,0.2-0.1s0.1-0.1,0.1-0.2v-4.2h-0.9v-0.4l1.5-0.5h0.5   v1.1c0.1-0.1,0.2-0.2,0.3-0.3s0.3-0.3,0.4-0.4s0.3-0.2,0.4-0.3s0.3-0.1,0.4-0.1c0.1,0,0.1,0,0.2,0s0.1,0,0.2,0s0.1,0,0.2,0.1   s0.1,0,0.1,0.1v1.2H201.5z"/>
	<path class="st12" d="M206.1,34.5c-0.1,0.1-0.3,0.1-0.5,0.2c-0.1,0.1-0.3,0.1-0.5,0.1s-0.4,0.1-0.6,0.1c-0.5,0-0.8-0.1-1-0.3   s-0.3-0.6-0.3-1v-4h-0.8v-0.4l0.8-0.4l0.5-1.3h0.5V29h1.7v0.6h-1.7v3.4c0,0.2,0,0.4,0.1,0.6s0.1,0.3,0.2,0.4s0.2,0.2,0.3,0.2   s0.3,0.1,0.4,0.1c0.1,0,0.2,0,0.3,0s0.2,0,0.3-0.1c0.1,0,0.2-0.1,0.2-0.1V34.5z"/>
	<path class="st12" d="M215.8,31.9c0,0.4-0.1,0.8-0.2,1.2s-0.3,0.7-0.6,1s-0.5,0.5-0.9,0.6s-0.7,0.2-1.2,0.2s-0.8-0.1-1.2-0.2   s-0.7-0.4-0.9-0.6s-0.4-0.6-0.6-1s-0.2-0.8-0.2-1.2c0-0.4,0.1-0.8,0.2-1.2s0.3-0.7,0.6-1s0.6-0.5,0.9-0.6s0.8-0.2,1.2-0.2   s0.8,0.1,1.2,0.2s0.6,0.4,0.9,0.7s0.4,0.6,0.6,1S215.8,31.5,215.8,31.9z M214.6,31.9c0-0.3,0-0.6-0.1-0.9s-0.2-0.6-0.3-0.8   s-0.3-0.4-0.5-0.6s-0.4-0.2-0.7-0.2c-0.3,0-0.5,0.1-0.7,0.2s-0.4,0.3-0.5,0.6s-0.2,0.5-0.3,0.8s-0.1,0.6-0.1,0.9   c0,0.3,0,0.6,0.1,0.9s0.2,0.6,0.3,0.8s0.3,0.4,0.5,0.6s0.4,0.2,0.7,0.2c0.3,0,0.5-0.1,0.7-0.2s0.4-0.3,0.5-0.6s0.2-0.5,0.3-0.8   S214.6,32.2,214.6,31.9z"/>
	<path class="st12" d="M220.9,26.7c0,0.1,0,0.2-0.1,0.3s-0.1,0.1-0.2,0.2s-0.1,0.1-0.2,0.1s-0.1,0-0.1,0c0,0,0,0-0.1-0.1   c-0.1,0-0.1-0.1-0.2-0.1s-0.2-0.1-0.3-0.2s-0.2-0.1-0.3-0.2c-0.1-0.1-0.1-0.1-0.2-0.1s-0.1-0.1-0.1-0.1c-0.1,0-0.2,0.1-0.3,0.2   c-0.1,0.1-0.2,0.2-0.2,0.3s-0.1,0.3-0.2,0.5c0,0.2-0.1,0.4-0.1,0.7v0.8h1.5v0.6h-1.5V34c0,0.1,0,0.1,0.1,0.2s0.1,0.1,0.2,0.1l0.7,0   v0.5h-2.9v-0.5l0.6,0c0.1,0,0.1,0,0.2-0.1s0.1-0.1,0.1-0.2v-4.3h-0.8v-0.4l0.8-0.2c0-0.2,0-0.4,0-0.5s0-0.3,0.1-0.4   s0.1-0.3,0.1-0.4s0.1-0.3,0.2-0.4c0.1-0.2,0.3-0.4,0.4-0.6s0.3-0.3,0.5-0.4s0.4-0.2,0.6-0.2s0.4-0.1,0.6-0.1c0.2,0,0.3,0,0.4,0.1   s0.2,0.1,0.3,0.2c0.1,0.1,0.2,0.1,0.2,0.2S220.9,26.6,220.9,26.7z"/>
	<path class="st12" d="M228.2,34.8v-0.6c-0.1,0.1-0.3,0.2-0.4,0.3s-0.3,0.2-0.5,0.2s-0.3,0.1-0.5,0.2s-0.3,0.1-0.5,0.1   c-0.4,0-0.7-0.1-1-0.3s-0.5-0.4-0.7-0.7s-0.3-0.6-0.4-0.9s-0.1-0.7-0.1-1c0-0.4,0.1-0.8,0.2-1.2s0.3-0.7,0.6-1s0.6-0.5,1-0.7   s0.8-0.3,1.3-0.3c0.1,0,0.2,0,0.3,0s0.2,0,0.3,0s0.2,0,0.3,0s0.1,0,0.2,0v-2.2h-0.9v-0.4l1.5-0.5h0.5V34c0,0.1,0,0.1,0.1,0.2   s0.1,0.1,0.2,0.1l0.5,0v0.5H228.2z M228.2,29.6c-0.1,0-0.1,0-0.2-0.1s-0.2,0-0.3-0.1s-0.2,0-0.3,0s-0.2,0-0.3,0   c-0.3,0-0.6,0.1-0.8,0.2s-0.4,0.3-0.6,0.5s-0.3,0.5-0.4,0.8c-0.1,0.3-0.1,0.6-0.1,1c0,0.3,0,0.6,0.1,0.9c0.1,0.3,0.2,0.5,0.3,0.7   s0.3,0.4,0.5,0.5s0.5,0.2,0.7,0.2c0.1,0,0.2,0,0.4,0s0.2-0.1,0.3-0.1s0.2-0.1,0.3-0.1s0.2-0.1,0.3-0.1V29.6z"/>
	<path class="st12" d="M235.9,34.2c-0.2,0.1-0.3,0.2-0.5,0.3s-0.4,0.2-0.6,0.2s-0.4,0.1-0.6,0.2s-0.4,0.1-0.6,0.1   c-0.4,0-0.7-0.1-1-0.2s-0.6-0.3-0.9-0.6s-0.5-0.6-0.6-0.9s-0.2-0.8-0.2-1.3c0-0.5,0.1-0.9,0.2-1.3s0.3-0.7,0.6-1s0.5-0.5,0.9-0.6   s0.7-0.2,1.1-0.2c0.4,0,0.7,0.1,1,0.2s0.5,0.3,0.7,0.5s0.3,0.5,0.4,0.8s0.1,0.6,0.1,1v0.2c0,0.1,0,0.1,0,0.2H232   c0,0.3,0,0.6,0.1,0.9s0.2,0.6,0.3,0.8s0.4,0.4,0.6,0.6s0.6,0.2,1,0.2c0.2,0,0.3,0,0.5-0.1s0.3-0.1,0.5-0.2s0.3-0.1,0.5-0.2   s0.3-0.2,0.4-0.3V34.2z M234.7,30.8c0-0.2,0-0.4-0.1-0.6s-0.1-0.3-0.2-0.4s-0.2-0.2-0.4-0.3s-0.3-0.1-0.5-0.1s-0.4,0-0.6,0.1   s-0.3,0.2-0.5,0.3s-0.2,0.3-0.3,0.5s-0.1,0.4-0.1,0.7h2.6V30.8z"/>
	<path class="st12" d="M241.9,29.5l-2.1,5.2H239l-1.9-5.2l-0.7-0.1V29h2.7v0.5l-0.6,0c-0.1,0-0.1,0-0.2,0.1s0,0.1,0,0.2l1.3,3.8   l1.5-3.8c0-0.1,0-0.1,0-0.2s-0.1-0.1-0.2-0.1l-0.5,0V29h2.1v0.5L241.9,29.5z"/>
	<path class="st12" d="M248.1,34.2c-0.2,0.1-0.3,0.2-0.5,0.3s-0.4,0.2-0.6,0.2s-0.4,0.1-0.6,0.2s-0.4,0.1-0.6,0.1   c-0.4,0-0.7-0.1-1-0.2s-0.6-0.3-0.9-0.6s-0.5-0.6-0.6-0.9s-0.2-0.8-0.2-1.3c0-0.5,0.1-0.9,0.2-1.3s0.3-0.7,0.6-1s0.5-0.5,0.9-0.6   s0.7-0.2,1.1-0.2c0.4,0,0.7,0.1,1,0.2s0.5,0.3,0.7,0.5s0.3,0.5,0.4,0.8s0.1,0.6,0.1,1v0.2c0,0.1,0,0.1,0,0.2h-3.9   c0,0.3,0,0.6,0.1,0.9s0.2,0.6,0.3,0.8s0.4,0.4,0.6,0.6s0.6,0.2,1,0.2c0.2,0,0.3,0,0.5-0.1s0.3-0.1,0.5-0.2s0.3-0.1,0.5-0.2   s0.3-0.2,0.4-0.3V34.2z M246.9,30.8c0-0.2,0-0.4-0.1-0.6s-0.1-0.3-0.2-0.4s-0.2-0.2-0.4-0.3s-0.3-0.1-0.5-0.1s-0.4,0-0.6,0.1   s-0.3,0.2-0.5,0.3s-0.2,0.3-0.3,0.5s-0.1,0.4-0.1,0.7h2.6V30.8z"/>
	<path class="st12" d="M248.8,34.8v-0.5l0.6,0c0.1,0,0.1,0,0.2-0.1s0.1-0.1,0.1-0.2v-7.2h-0.9v-0.4l1.5-0.5h0.5V34   c0,0.1,0,0.1,0.1,0.2s0.1,0.1,0.2,0.1l0.7,0v0.5H248.8z"/>
	<path class="st12" d="M258.2,31.9c0,0.4-0.1,0.8-0.2,1.2s-0.3,0.7-0.6,1s-0.5,0.5-0.9,0.6s-0.7,0.2-1.2,0.2s-0.8-0.1-1.2-0.2   s-0.7-0.4-0.9-0.6s-0.4-0.6-0.6-1s-0.2-0.8-0.2-1.2c0-0.4,0.1-0.8,0.2-1.2s0.3-0.7,0.6-1s0.6-0.5,0.9-0.6s0.8-0.2,1.2-0.2   s0.8,0.1,1.2,0.2s0.6,0.4,0.9,0.7s0.4,0.6,0.6,1S258.2,31.5,258.2,31.9z M257,31.9c0-0.3,0-0.6-0.1-0.9s-0.2-0.6-0.3-0.8   s-0.3-0.4-0.5-0.6c-0.2-0.1-0.4-0.2-0.7-0.2c-0.3,0-0.5,0.1-0.7,0.2s-0.4,0.3-0.5,0.6s-0.2,0.5-0.3,0.8s-0.1,0.6-0.1,0.9   c0,0.3,0,0.6,0.1,0.9s0.2,0.6,0.3,0.8s0.3,0.4,0.5,0.6s0.4,0.2,0.7,0.2c0.3,0,0.5-0.1,0.7-0.2c0.2-0.1,0.4-0.3,0.5-0.6   s0.2-0.5,0.3-0.8S257,32.2,257,31.9z"/>
	<path class="st12" d="M264.9,31.8c0,0.5-0.1,0.9-0.2,1.3s-0.3,0.7-0.6,1s-0.6,0.5-1,0.6s-0.8,0.2-1.3,0.2c-0.1,0-0.2,0-0.4,0   s-0.2,0-0.3,0c-0.1,0-0.2,0-0.4-0.1v1.8c0,0.1,0,0.1,0.1,0.2s0.1,0.1,0.2,0.1l0.7,0.1v0.5h-2.9v-0.5l0.6-0.1c0.1,0,0.1,0,0.2-0.1   s0.1-0.1,0.1-0.2v-6.8h-0.8v-0.4l1.5-0.5h0.5v0.6c0.2-0.1,0.4-0.3,0.6-0.4c0.2-0.1,0.4-0.2,0.6-0.3s0.4-0.1,0.7-0.1   c0.3,0,0.6,0.1,0.9,0.2s0.5,0.3,0.7,0.6s0.4,0.6,0.5,0.9S264.9,31.4,264.9,31.8z M263.7,32c0-0.3,0-0.6-0.1-0.9s-0.2-0.5-0.3-0.7   s-0.3-0.4-0.5-0.5s-0.5-0.2-0.7-0.2c-0.2,0-0.3,0-0.4,0.1s-0.3,0.1-0.4,0.1c-0.1,0.1-0.3,0.1-0.4,0.2v4.1c0.1,0,0.2,0.1,0.3,0.1   c0.1,0,0.2,0,0.3,0.1s0.2,0,0.4,0c0.3,0,0.6-0.1,0.9-0.2s0.4-0.3,0.6-0.5s0.3-0.5,0.4-0.8S263.7,32.3,263.7,32z"/>
	<path class="st12" d="M272.6,34.8v-0.5l0.5,0c0.1,0,0.1,0,0.2-0.1s0.1-0.1,0.1-0.2V31c0-0.2,0-0.4-0.1-0.5s-0.1-0.3-0.2-0.4   s-0.2-0.2-0.3-0.2s-0.3-0.1-0.5-0.1c-0.1,0-0.2,0-0.3,0s-0.2,0-0.3,0.1s-0.2,0.1-0.3,0.1s-0.2,0.1-0.3,0.1V34c0,0.1,0,0.1,0.1,0.2   s0.1,0.1,0.2,0.1l0.5,0v0.5h-2.6v-0.5l0.5,0c0.1,0,0.1,0,0.2-0.1s0.1-0.1,0.1-0.2v-3.1c0-0.2,0-0.3-0.1-0.5s-0.1-0.3-0.2-0.4   s-0.2-0.2-0.3-0.2s-0.3-0.1-0.5-0.1c-0.1,0-0.2,0-0.4,0s-0.2,0-0.4,0.1s-0.2,0.1-0.3,0.1s-0.2,0.1-0.3,0.1V34c0,0.1,0,0.1,0.1,0.2   s0.1,0.1,0.2,0.1l0.5,0v0.5h-2.7v-0.5l0.6,0c0.1,0,0.1,0,0.2-0.1s0.1-0.1,0.1-0.2v-4.2h-0.8v-0.4L267,29h0.5v0.6   c0.1-0.1,0.3-0.2,0.4-0.3s0.3-0.2,0.5-0.2s0.3-0.1,0.5-0.2s0.3-0.1,0.5-0.1c0.2,0,0.3,0,0.5,0.1s0.3,0.1,0.4,0.2s0.2,0.2,0.3,0.3   s0.1,0.2,0.2,0.3c0.1-0.1,0.3-0.2,0.4-0.3s0.4-0.2,0.5-0.3s0.4-0.2,0.6-0.2s0.4-0.1,0.5-0.1c0.3,0,0.6,0.1,0.8,0.2s0.4,0.3,0.5,0.4   s0.2,0.4,0.2,0.6s0.1,0.4,0.1,0.6V34c0,0.1,0,0.1,0.1,0.2s0.1,0.1,0.2,0.1l0.6,0v0.5H272.6z"/>
	<path class="st12" d="M281,34.2c-0.2,0.1-0.3,0.2-0.5,0.3s-0.4,0.2-0.6,0.2s-0.4,0.1-0.6,0.2s-0.4,0.1-0.6,0.1   c-0.4,0-0.7-0.1-1-0.2s-0.6-0.3-0.9-0.6s-0.5-0.6-0.6-0.9s-0.2-0.8-0.2-1.3c0-0.5,0.1-0.9,0.2-1.3s0.3-0.7,0.6-1s0.5-0.5,0.9-0.6   s0.7-0.2,1.1-0.2c0.4,0,0.7,0.1,1,0.2s0.5,0.3,0.7,0.5s0.3,0.5,0.4,0.8s0.1,0.6,0.1,1v0.2c0,0.1,0,0.1,0,0.2h-3.9   c0,0.3,0,0.6,0.1,0.9s0.2,0.6,0.3,0.8s0.4,0.4,0.6,0.6s0.6,0.2,1,0.2c0.2,0,0.3,0,0.5-0.1s0.3-0.1,0.5-0.2s0.3-0.1,0.5-0.2   s0.3-0.2,0.4-0.3V34.2z M279.8,30.8c0-0.2,0-0.4-0.1-0.6s-0.1-0.3-0.2-0.4s-0.2-0.2-0.4-0.3s-0.3-0.1-0.5-0.1s-0.4,0-0.6,0.1   s-0.3,0.2-0.5,0.3s-0.2,0.3-0.3,0.5s-0.1,0.4-0.1,0.7h2.6V30.8z"/>
	<path class="st12" d="M285.3,34.8v-0.5l0.5,0c0.1,0,0.1,0,0.2-0.1s0.1-0.1,0.1-0.2v-3.1c0-0.4-0.1-0.7-0.3-0.9s-0.5-0.3-0.9-0.3   c-0.2,0-0.5,0-0.7,0.1s-0.4,0.1-0.6,0.2V34c0,0.1,0,0.1,0.1,0.2s0.1,0.1,0.2,0.1l0.5,0v0.5h-2.7v-0.5l0.6,0c0.1,0,0.1,0,0.2-0.1   s0.1-0.1,0.1-0.2v-4.2h-0.8v-0.4l1.5-0.5h0.5v0.6c0.2-0.1,0.3-0.2,0.5-0.3s0.3-0.2,0.5-0.2s0.3-0.1,0.5-0.2s0.3-0.1,0.5-0.1   c0.5,0,0.9,0.2,1.2,0.5s0.4,0.8,0.4,1.4V34c0,0.1,0,0.1,0.1,0.2s0.1,0.1,0.2,0.1l0.5,0v0.5H285.3z"/>
	<path class="st12" d="M292.2,34.5c-0.1,0.1-0.3,0.1-0.5,0.2c-0.1,0.1-0.3,0.1-0.5,0.1s-0.4,0.1-0.6,0.1c-0.5,0-0.8-0.1-1-0.3   s-0.3-0.6-0.3-1v-4h-0.8v-0.4l0.8-0.4l0.5-1.3h0.5V29h1.7v0.6h-1.7v3.4c0,0.2,0,0.4,0.1,0.6s0.1,0.3,0.2,0.4s0.2,0.2,0.3,0.2   s0.3,0.1,0.4,0.1c0.1,0,0.2,0,0.3,0s0.2,0,0.3-0.1c0.1,0,0.2-0.1,0.2-0.1V34.5z"/>
</g>
</svg>